<?xml version="1.0" encoding="UTF-8" ?>
<svg version="1.1" width="300" height="225" xmlns="http://www.w3.org/2000/svg" shape-rendering="crispEdges">
<rect x="100" y="0" width="50" height="75" fill="#303D72" />
<rect x="200" y="0" width="50" height="25" fill="#71A4BF" />
<rect x="75" y="25" width="25" height="50" fill="#303D72" />
<rect x="150" y="25" width="25" height="50" fill="#303D72" />
<rect x="175" y="25" width="25" height="25" fill="#71A4BF" />
<rect x="200" y="25" width="25" height="25" fill="#ABDCE1" />
<rect x="225" y="25" width="25" height="25" fill="#71A4BF" />
<rect x="250" y="25" width="25" height="25" fill="#567492" />
<rect x="0" y="50" width="25" height="25" fill="#252526" />
<rect x="175" y="50" width="75" height="25" fill="#567492" />
<rect x="250" y="50" width="25" height="25" fill="#303D72" />
<rect x="25" y="75" width="50" height="25" fill="#252526" />
<rect x="125" y="75" width="50" height="25" fill="#000000" />
<rect x="175" y="75" width="25" height="150" fill="#FAD675" />
<rect x="200" y="75" width="25" height="75" fill="#FAFA7B" />
<rect x="225" y="75" width="25" height="150" fill="#000000" />
<rect x="250" y="75" width="25" height="75" fill="#252526" />
<rect x="275" y="75" width="25" height="50" fill="#FAD675" />
<rect x="50" y="100" width="100" height="50" fill="#FAFA7B" />
<rect x="150" y="100" width="25" height="125" fill="#000000" />
<rect x="275" y="125" width="25" height="75" fill="#FAFA7B" />
<rect x="50" y="150" width="25" height="25" fill="#FAFA7B" />
<rect x="75" y="150" width="50" height="50" fill="#000000" />
<rect x="125" y="150" width="25" height="50" fill="#FAFA7B" />
<rect x="200" y="150" width="25" height="25" fill="#FAD675" />
<rect x="250" y="150" width="25" height="25" fill="#000000" />
<rect x="50" y="175" width="25" height="25" fill="#FAD675" />
<rect x="200" y="175" width="25" height="50" fill="#000000" />
<rect x="250" y="175" width="25" height="25" fill="#FAD675" />
<rect x="75" y="200" width="50" height="25" fill="#FAD675" />
<rect x="125" y="200" width="25" height="25" fill="#000000" />
<rect x="250" y="200" width="25" height="25" fill="#FAFA7B" />
<rect x="275" y="200" width="25" height="25" fill="#000000" />
</svg>