<svg xmlns="http://www.w3.org/2000/svg" xmlns:xlink="http://www.w3.org/1999/xlink" width="150" zoomAndPan="magnify" viewBox="0 0 112.5 112.499997" height="150" preserveAspectRatio="xMidYMid meet" version="1.0"><path fill="#000000" d="M 66.773438 56.007812 L 99.679688 23.101562 C 102.707031 20.074219 102.714844 15.15625 99.683594 12.125 C 96.660156 9.101562 91.742188 9.097656 88.707031 12.128906 L 55.800781 45.035156 L 22.894531 12.128906 C 19.867188 9.101562 14.949219 9.097656 11.917969 12.125 C 8.898438 15.148438 8.894531 20.070312 11.925781 23.101562 L 44.832031 56.007812 L 11.925781 88.914062 C 8.898438 91.941406 8.890625 96.859375 11.917969 99.890625 C 14.941406 102.914062 19.863281 102.917969 22.894531 99.882812 L 55.800781 66.976562 L 88.707031 99.882812 C 91.738281 102.914062 96.652344 102.917969 99.683594 99.890625 C 102.707031 96.867188 102.710938 91.945312 99.679688 88.914062 Z M 66.773438 56.007812 " fill-opacity="1" fill-rule="evenodd"/></svg>