<svg xmlns="http://www.w3.org/2000/svg" xmlns:xlink="http://www.w3.org/1999/xlink" width="150" zoomAndPan="magnify" viewBox="0 0 112.5 112.499997" height="150" preserveAspectRatio="xMidYMid meet" version="1.0"><defs><clipPath id="fc0edab3f1"><path d="M 0.00390625 8.261719 L 112 8.261719 L 112 26.847656 L 0.00390625 26.847656 Z M 0.00390625 8.261719 " clip-rule="nonzero"/></clipPath><clipPath id="ea83cf0b2f"><path d="M 0.00390625 45 L 112 45 L 112 64 L 0.00390625 64 Z M 0.00390625 45 " clip-rule="nonzero"/></clipPath><clipPath id="8adb545ad0"><path d="M 0.00390625 82.171875 L 112 82.171875 L 112 100.820312 L 0.00390625 100.820312 Z M 0.00390625 82.171875 " clip-rule="nonzero"/></clipPath></defs><g clip-path="url(#fc0edab3f1)"><path fill="#000000" d="M 102.742188 26.773438 L 9.261719 26.773438 C 4.148438 26.773438 0.00390625 22.628906 0.00390625 17.515625 C 0.00390625 12.40625 4.148438 8.261719 9.261719 8.261719 L 102.742188 8.261719 C 107.855469 8.261719 112 12.40625 112 17.515625 C 112 22.628906 107.855469 26.773438 102.742188 26.773438 " fill-opacity="1" fill-rule="nonzero"/></g><g clip-path="url(#ea83cf0b2f)"><path fill="#000000" d="M 102.742188 63.796875 L 9.261719 63.796875 C 4.148438 63.796875 0.00390625 59.652344 0.00390625 54.539062 C 0.00390625 49.425781 4.148438 45.285156 9.261719 45.285156 L 102.742188 45.285156 C 107.855469 45.285156 112 49.425781 112 54.539062 C 112 59.652344 107.855469 63.796875 102.742188 63.796875 " fill-opacity="1" fill-rule="nonzero"/></g><g clip-path="url(#8adb545ad0)"><path fill="#000000" d="M 102.742188 100.820312 L 9.261719 100.820312 C 4.148438 100.820312 0.00390625 96.675781 0.00390625 91.5625 C 0.00390625 86.449219 4.148438 82.308594 9.261719 82.308594 L 102.742188 82.308594 C 107.855469 82.308594 112 86.449219 112 91.5625 C 112 96.675781 107.855469 100.820312 102.742188 100.820312 " fill-opacity="1" fill-rule="nonzero"/></g></svg>