<svg xmlns="http://www.w3.org/2000/svg" xmlns:xlink="http://www.w3.org/1999/xlink" width="150" zoomAndPan="magnify" viewBox="0 0 112.5 112.499997" height="150" preserveAspectRatio="xMidYMid meet" version="1.0"><defs><clipPath id="cd7a676914"><path d="M 2 16 L 112.003906 16 L 112.003906 100.808594 L 2 100.808594 Z M 2 16 " clip-rule="nonzero"/></clipPath></defs><g clip-path="url(#cd7a676914)"><path fill="#ffc7c7" d="M 76.675781 70.910156 C 81.644531 75.28125 74.359375 82.511719 69.421875 78.164062 C 66.636719 75.710938 63.722656 73.464844 60.851562 71.148438 C 61.953125 75.347656 63.125 79.527344 64.144531 83.746094 C 65.695312 90.171875 55.800781 92.890625 54.25 86.472656 C 52.472656 79.105469 50.511719 71.789062 48.5 64.480469 C 44.238281 71.605469 39.976562 78.730469 35.710938 85.855469 C 32.320312 91.523438 23.453125 86.355469 26.851562 80.675781 C 30.734375 74.183594 34.621094 67.695312 38.503906 61.207031 C 28.695312 62.796875 18.914062 64.558594 9.179688 66.6875 C 2.730469 68.09375 0.00390625 58.199219 6.449219 56.792969 C 15.3125 54.855469 24.21875 53.226562 33.140625 51.722656 C 25.179688 46.898438 17.027344 42.363281 8.511719 38.371094 C 2.53125 35.570312 7.746094 26.726562 13.691406 29.511719 C 23.9375 34.3125 33.722656 39.828125 43.171875 45.839844 C 42.464844 43.460938 41.765625 41.078125 41.011719 38.710938 C 40.378906 36.722656 39.304688 30.449219 38.046875 27.453125 C 37.753906 27.335938 37.46875 27.320312 37.171875 27.136719 C 36.957031 27.007812 36.742188 26.878906 36.53125 26.75 C 34.121094 25.285156 33.324219 22.179688 34.6875 19.730469 C 34.855469 19.433594 35.019531 19.136719 35.183594 18.84375 C 36.578125 16.339844 39.792969 15.722656 42.203125 17.003906 C 48.425781 20.304688 50.082031 31.839844 51.886719 38.84375 C 54.683594 34.164062 57.484375 29.484375 60.285156 24.804688 C 63.675781 19.136719 72.546875 24.304688 69.144531 29.984375 C 65.558594 35.976562 61.972656 41.96875 58.386719 47.960938 C 63.722656 47.28125 69.0625 46.617188 74.421875 46.085938 C 81 45.4375 80.933594 55.707031 74.421875 56.347656 C 69.828125 56.800781 65.253906 57.351562 60.679688 57.921875 C 66.148438 62.046875 71.496094 66.347656 76.675781 70.910156 Z M 198.246094 177.902344 C 200.976562 177.566406 203.710938 177.234375 206.457031 176.964844 C 210.34375 176.582031 210.382812 170.449219 206.457031 170.835938 C 203.253906 171.152344 200.0625 171.550781 196.875 171.953125 C 199.019531 168.375 201.160156 164.796875 203.304688 161.214844 C 205.332031 157.824219 200.035156 154.738281 198.011719 158.121094 C 196.339844 160.917969 194.664062 163.710938 192.992188 166.507812 C 191.914062 162.324219 190.925781 155.433594 187.210938 153.460938 C 185.769531 152.699219 183.851562 153.066406 183.015625 154.5625 C 182.917969 154.738281 182.820312 154.914062 182.722656 155.089844 C 181.90625 156.554688 182.382812 158.410156 183.820312 159.285156 C 183.949219 159.359375 184.078125 159.4375 184.203125 159.515625 C 184.382812 159.625 184.550781 159.636719 184.726562 159.703125 C 185.476562 161.492188 186.121094 165.242188 186.5 166.429688 C 186.945312 167.84375 187.363281 169.265625 187.789062 170.6875 C 182.144531 167.09375 176.300781 163.800781 170.179688 160.933594 C 166.628906 159.269531 163.511719 164.554688 167.085938 166.226562 C 172.171875 168.609375 177.039062 171.320312 181.792969 174.203125 C 176.464844 175.097656 171.148438 176.074219 165.851562 177.230469 C 162 178.070312 163.632812 183.980469 167.484375 183.140625 C 173.296875 181.867188 179.140625 180.816406 185 179.867188 C 182.679688 183.742188 180.359375 187.617188 178.039062 191.496094 C 176.007812 194.890625 181.304688 197.972656 183.332031 194.589844 C 185.878906 190.335938 188.425781 186.078125 190.972656 181.824219 C 192.171875 186.1875 193.34375 190.558594 194.40625 194.960938 C 195.328125 198.792969 201.242188 197.167969 200.316406 193.332031 C 199.707031 190.808594 199.003906 188.3125 198.347656 185.804688 C 200.0625 187.1875 201.804688 188.53125 203.464844 189.996094 C 206.417969 192.59375 210.769531 188.273438 207.800781 185.660156 C 204.707031 182.9375 201.511719 180.367188 198.246094 177.902344 Z M 198.246094 177.902344 " fill-opacity="1" fill-rule="nonzero"/></g></svg>