<svg xmlns="http://www.w3.org/2000/svg" xmlns:xlink="http://www.w3.org/1999/xlink" width="150" zoomAndPan="magnify" viewBox="0 0 112.5 112.499997" height="150" preserveAspectRatio="xMidYMid meet" version="1.0"><path fill="#ffc7c7" d="M 62.84375 43.980469 C 83.550781 8.140625 28.332031 8.140625 49.039062 43.980469 C 28.332031 8.140625 0.726562 55.925781 42.136719 55.925781 C 0.726562 55.925781 28.332031 103.710938 49.039062 67.875 C 28.332031 103.710938 83.550781 103.710938 62.84375 67.875 C 83.550781 103.710938 111.160156 55.925781 69.746094 55.925781 C 111.160156 55.925781 83.550781 8.140625 62.84375 43.980469 Z M 62.84375 43.980469 " fill-opacity="1" fill-rule="nonzero"/><path fill="#ff8888" d="M 65.992188 55.925781 C 65.992188 56.585938 65.929688 57.238281 65.800781 57.886719 C 65.671875 58.53125 65.480469 59.160156 65.226562 59.769531 C 64.976562 60.378906 64.664062 60.957031 64.296875 61.507812 C 63.933594 62.054688 63.515625 62.5625 63.050781 63.027344 C 62.582031 63.496094 62.074219 63.910156 61.527344 64.277344 C 60.976562 64.644531 60.398438 64.953125 59.789062 65.207031 C 59.179688 65.457031 58.550781 65.648438 57.902344 65.777344 C 57.253906 65.90625 56.601562 65.96875 55.941406 65.96875 C 55.28125 65.96875 54.628906 65.90625 53.980469 65.777344 C 53.335938 65.648438 52.707031 65.457031 52.097656 65.207031 C 51.488281 64.953125 50.90625 64.644531 50.359375 64.277344 C 49.808594 63.910156 49.300781 63.496094 48.835938 63.027344 C 48.367188 62.5625 47.953125 62.054688 47.585938 61.507812 C 47.21875 60.957031 46.910156 60.378906 46.65625 59.769531 C 46.40625 59.160156 46.214844 58.53125 46.085938 57.886719 C 45.957031 57.238281 45.890625 56.585938 45.890625 55.925781 C 45.890625 55.265625 45.957031 54.613281 46.085938 53.96875 C 46.214844 53.320312 46.40625 52.691406 46.65625 52.082031 C 46.910156 51.472656 47.21875 50.894531 47.585938 50.347656 C 47.953125 49.800781 48.367188 49.292969 48.835938 48.824219 C 49.300781 48.359375 49.808594 47.941406 50.359375 47.578125 C 50.90625 47.210938 51.488281 46.902344 52.097656 46.648438 C 52.707031 46.394531 53.335938 46.207031 53.980469 46.078125 C 54.628906 45.949219 55.28125 45.882812 55.941406 45.882812 C 56.601562 45.882812 57.253906 45.949219 57.902344 46.078125 C 58.550781 46.207031 59.179688 46.394531 59.789062 46.648438 C 60.398438 46.902344 60.976562 47.210938 61.527344 47.578125 C 62.074219 47.941406 62.582031 48.359375 63.050781 48.824219 C 63.515625 49.292969 63.933594 49.800781 64.296875 50.347656 C 64.664062 50.894531 64.976562 51.472656 65.226562 52.082031 C 65.480469 52.691406 65.671875 53.320312 65.800781 53.96875 C 65.929688 54.613281 65.992188 55.265625 65.992188 55.925781 Z M 65.992188 55.925781 " fill-opacity="1" fill-rule="nonzero"/></svg>