<svg xmlns="http://www.w3.org/2000/svg" xmlns:xlink="http://www.w3.org/1999/xlink" width="150" zoomAndPan="magnify" viewBox="0 0 112.5 112.499997" height="150" preserveAspectRatio="xMidYMid meet" version="1.0"><defs><clipPath id="befc9f6275"><path d="M 4.976562 7.980469 L 112.003906 7.980469 L 112.003906 100.800781 L 4.976562 100.800781 Z M 4.976562 7.980469 " clip-rule="nonzero"/></clipPath><clipPath id="ee0e40104e"><path d="M 112.003906 54.390625 L 91.042969 100.800781 L 25.933594 100.800781 L 4.976562 54.390625 L 25.933594 7.980469 L 91.042969 7.980469 Z M 112.003906 54.390625 " clip-rule="nonzero"/></clipPath><clipPath id="9d4c83b268"><path d="M 0.976562 0.980469 L 108 0.980469 L 108 93.800781 L 0.976562 93.800781 Z M 0.976562 0.980469 " clip-rule="nonzero"/></clipPath><clipPath id="7017512d21"><path d="M 108.003906 47.390625 L 87.042969 93.800781 L 21.933594 93.800781 L 0.976562 47.390625 L 21.933594 0.980469 L 87.042969 0.980469 Z M 108.003906 47.390625 " clip-rule="nonzero"/></clipPath><clipPath id="1c50a26b63"><rect x="0" width="109" y="0" height="94"/></clipPath><clipPath id="005e5da44b"><path d="M 4.976562 7.984375 L 111.75 7.984375 L 111.75 100.570312 L 4.976562 100.570312 Z M 4.976562 7.984375 " clip-rule="nonzero"/></clipPath><clipPath id="1e2c874047"><path d="M 111.996094 54.390625 L 91.039062 100.800781 L 25.929688 100.800781 L 4.976562 54.390625 L 25.929688 7.984375 L 91.039062 7.984375 Z M 111.996094 54.390625 " clip-rule="nonzero"/></clipPath><clipPath id="a548a18a3c"><path d="M 0 7.046875 L 106.777344 7.046875 L 106.777344 99.636719 L 0 99.636719 Z M 0 7.046875 " clip-rule="nonzero"/></clipPath><clipPath id="b732e38af0"><path d="M 0 7.046875 L 107.324219 7.046875 L 107.324219 99.871094 L 0 99.871094 Z M 0 7.046875 " clip-rule="nonzero"/></clipPath><clipPath id="92de4339dd"><path d="M 107.027344 53.457031 L 86.070312 99.871094 L 20.957031 99.871094 L 0 53.457031 L 20.957031 7.046875 L 86.070312 7.046875 Z M 107.027344 53.457031 " clip-rule="nonzero"/></clipPath><clipPath id="90f05a815a"><path d="M 0 0.046875 L 107 0.046875 L 107 92.871094 L 0 92.871094 Z M 0 0.046875 " clip-rule="nonzero"/></clipPath><clipPath id="87e8b4ac64"><path d="M 107.027344 46.457031 L 86.070312 92.871094 L 20.957031 92.871094 L 0 46.457031 L 20.957031 0.046875 L 86.070312 0.046875 Z M 107.027344 46.457031 " clip-rule="nonzero"/></clipPath><clipPath id="0ebdd829c8"><rect x="0" width="108" y="0" height="93"/></clipPath><clipPath id="67b57a0b27"><path d="M 0 7.050781 L 106.777344 7.050781 L 106.777344 99.636719 L 0 99.636719 Z M 0 7.050781 " clip-rule="nonzero"/></clipPath><clipPath id="803f751d23"><path d="M 107.019531 53.457031 L 86.0625 99.867188 L 20.957031 99.867188 L 0 53.457031 L 20.957031 7.050781 L 86.0625 7.050781 Z M 107.019531 53.457031 " clip-rule="nonzero"/></clipPath></defs><g clip-path="url(#befc9f6275)"><g clip-path="url(#ee0e40104e)"><g transform="matrix(1, 0, 0, 1, 4, 7)"><g clip-path="url(#1c50a26b63)"><g clip-path="url(#9d4c83b268)"><g clip-path="url(#7017512d21)"><path fill="#fecb56" d="M 0.976562 0.980469 L 107.9375 0.980469 L 107.9375 93.800781 L 0.976562 93.800781 Z M 0.976562 0.980469 " fill-opacity="1" fill-rule="nonzero"/></g></g></g></g></g></g><g clip-path="url(#005e5da44b)"><g clip-path="url(#1e2c874047)"><path stroke-linecap="butt" transform="matrix(0.746681, 0, 0, 0.746681, 4.974853, 7.983043)" fill="none" stroke-linejoin="miter" d="M 143.329198 62.151788 L 115.262298 124.307024 L 28.063958 124.307024 L 0.00228985 62.151788 L 28.063958 0.00178403 L 115.262298 0.00178403 Z M 143.329198 62.151788 " stroke="#000000" stroke-width="4" stroke-opacity="1" stroke-miterlimit="4"/></g></g><g clip-path="url(#a548a18a3c)"><path fill="#ffffff" d="M 79.761719 7.65625 L 27.015625 7.65625 L 0.640625 53.328125 L 27.015625 99.003906 L 79.761719 99.003906 L 106.132812 53.328125 Z M 79.761719 7.65625 " fill-opacity="1" fill-rule="nonzero"/><path fill="#070404" d="M 79.761719 99.621094 L 27.015625 99.621094 C 26.792969 99.621094 26.59375 99.496094 26.472656 99.324219 L 0.0976562 53.652344 C 0 53.453125 0 53.230469 0.0976562 53.035156 L 26.472656 7.359375 C 26.570312 7.164062 26.792969 7.0625 27.015625 7.0625 L 79.761719 7.0625 C 79.984375 7.0625 80.179688 7.1875 80.304688 7.359375 L 106.675781 53.035156 C 106.777344 53.230469 106.777344 53.453125 106.675781 53.652344 L 80.304688 99.324219 C 80.179688 99.496094 79.984375 99.621094 79.761719 99.621094 Z M 27.386719 98.386719 L 79.414062 98.386719 L 105.441406 53.328125 L 79.414062 8.273438 L 27.386719 8.273438 L 1.359375 53.328125 Z M 27.386719 98.386719 " fill-opacity="1" fill-rule="nonzero"/></g><g clip-path="url(#b732e38af0)"><g clip-path="url(#92de4339dd)"><g transform="matrix(1, 0, 0, 1, 0, 7)"><g clip-path="url(#0ebdd829c8)"><g clip-path="url(#90f05a815a)"><g clip-path="url(#87e8b4ac64)"><path fill="#fffffe" d="M 0 0.046875 L 106.960938 0.046875 L 106.960938 92.871094 L 0 92.871094 Z M 0 0.046875 " fill-opacity="1" fill-rule="nonzero"/></g></g></g></g></g></g><g clip-path="url(#67b57a0b27)"><g clip-path="url(#803f751d23)"><path stroke-linecap="butt" transform="matrix(0.746681, 0, 0, 0.746681, 0.0000015, 7.050658)" fill="none" stroke-linejoin="miter" d="M 143.326906 62.150169 L 115.260006 124.305405 L 28.066898 124.305405 L -0.00000200889 62.150169 L 28.066898 0.000165146 L 115.260006 0.000165146 Z M 143.326906 62.150169 " stroke="#000000" stroke-width="4" stroke-opacity="1" stroke-miterlimit="4"/></g></g></svg>